<svg xmlns="http://www.w3.org/2000/svg" viewBox="0 0 512 512">
  <defs>
    <linearGradient id="bg" x1="0" y1="0" x2="1" y2="1">
      <stop offset="0" stop-color="#0a1f3d"/>
      <stop offset="0.58" stop-color="#12395a"/>
      <stop offset="1" stop-color="#2c7f91"/>
    </linearGradient>
    <linearGradient id="rim" x1="0" y1="0" x2="1" y2="1">
      <stop offset="0" stop-color="#ffffff" stop-opacity="0.22"/>
      <stop offset="1" stop-color="#7be2ee" stop-opacity="0.18"/>
    </linearGradient>
    <filter id="softShadow" x="-20%" y="-20%" width="140%" height="140%">
      <feDropShadow dx="0" dy="12" stdDeviation="14" flood-color="#061326" flood-opacity="0.28"/>
    </filter>
  </defs>
  <rect x="32" y="32" width="448" height="448" rx="104" fill="url(#bg)"/>
  <rect x="58" y="58" width="396" height="396" rx="86" fill="none" stroke="url(#rim)" stroke-width="8"/>
  <g fill="none" stroke="#f8fbff" stroke-width="42" stroke-linecap="round" stroke-linejoin="round" filter="url(#softShadow)">
    <path d="M206 180 132 256l74 76"/>
    <path d="M306 180 380 256l-74 76"/>
  </g>
  <path d="M278 168v80l-22 13-22-13v-80c-27 12-46 39-46 70 0 28 15 53 38 66v96a30 30 0 0 0 60 0v-96c23-13 38-38 38-66 0-31-19-58-46-70Z" fill="#f8fbff" filter="url(#softShadow)"/>
  <circle cx="256" cy="397" r="14" fill="#12395a"/>
</svg>
